<svg width="242" height="72" viewBox="0 0 242 72" fill="none" xmlns="http://www.w3.org/2000/svg">
<circle cx="58.9477" cy="34.1049" r="22.8678" fill="#0099FF"/>
<circle cx="58.9477" cy="34.1048" r="13.0673" fill="black"/>
<circle cx="46.6706" cy="19.8597" r="4.04918" fill="white"/>
<path d="M5.81191 14.8951H36.1832L17.2968 48.1057H35.5132V56.7832H3.3235L22.3375 23.4769H5.81191V14.8951Z" fill="white"/>
<path d="M85.9207 14.8951H100.245C104.095 14.8951 107.2 16.0223 109.561 18.2768C111.921 20.51 113.102 23.4556 113.102 27.1138C113.102 29.5171 112.517 31.8035 111.347 33.9728C110.199 36.121 108.455 37.7267 106.115 38.7901C103.776 39.8536 101.776 40.4065 100.117 40.4491L94.8853 40.5767V56.7832H85.9207V14.8951ZM94.7577 22.4241V33.1434H98.267C99.7771 33.1434 101.064 32.601 102.127 31.5163C103.212 30.4317 103.754 29.1449 103.754 27.6561C103.754 25.9547 103.148 24.636 101.936 23.7002C100.724 22.7644 99.0008 22.2965 96.7676 22.2965L94.7577 22.4241ZM119.528 14.8951H147.698V23.7959H138.095V56.7832H129.067V23.7959H119.528V14.8951ZM155.241 14.8951H164.238V56.7832H155.241V14.8951ZM205.917 17.1283V27.369C201.386 24.6254 197.42 23.2536 194.017 23.2536C190.614 23.2536 187.892 24.4233 185.85 26.7629C183.808 29.1024 182.787 32.2501 182.787 36.206C182.787 39.9493 183.861 42.9481 186.009 45.2026C188.157 47.4357 191.029 48.5523 194.623 48.5523C197.771 48.5523 201.535 47.2869 205.917 44.7559V54.9009C201.004 56.5386 196.909 57.3574 193.634 57.3574C187.998 57.3574 183.213 55.2944 179.278 51.1683C175.343 47.021 173.376 41.9698 173.376 36.0146C173.376 29.9531 175.375 24.8274 179.374 20.6376C183.393 16.4264 188.274 14.3208 194.017 14.3208C197.718 14.3208 201.684 15.2567 205.917 17.1283ZM238.184 18.6915L232.569 24.8487C229.613 23.1047 227.486 22.2327 226.189 22.2327C225.189 22.2327 224.328 22.6155 223.605 23.3812C222.882 24.1256 222.52 25.0189 222.52 26.061C222.52 28.124 224.392 29.9106 228.135 31.4206C230.878 32.5904 232.952 33.6538 234.356 34.6109C235.76 35.5467 236.929 36.8547 237.865 38.5349C238.822 40.2151 239.301 42.0336 239.301 43.9903C239.301 47.5846 237.844 50.7111 234.93 53.3696C232.038 56.0282 228.613 57.3574 224.657 57.3574C220.319 57.3574 216.033 55.3157 211.801 51.2322L217.735 44.3093C220.393 47.0529 222.882 48.4247 225.2 48.4247C226.284 48.4247 227.327 47.9462 228.326 46.9891C229.326 46.0108 229.826 44.9899 229.826 43.9265C229.826 41.7358 227.518 39.811 222.903 38.1521C220.266 37.195 218.394 36.3017 217.288 35.4723C216.182 34.6215 215.246 33.3986 214.481 31.8035C213.736 30.1871 213.364 28.5388 213.364 26.8586C213.364 23.1366 214.576 20.1165 217.001 17.7982C219.425 15.48 222.594 14.3208 226.508 14.3208C231.144 14.3208 235.036 15.7777 238.184 18.6915Z" fill="white"/>
</svg>
